<svg width="746" height="343" viewBox="0 0 746 343" fill="none" xmlns="http://www.w3.org/2000/svg" role="img" aria-labelledby="title desc">
  <title id="title">GitHub activity overview</title>
  <desc id="desc">Activity overview showing organizations dlang, hushh-labs, and Kathiravellulab; contributions to many repositories; 78 percent commits, 19 percent pull requests, 2 percent code review, and 1 percent issues.</desc>
  <rect x="0.5" y="0.5" width="745" height="342" rx="7.5" fill="#0D1117" stroke="#30363D"/>
  <g font-family="-apple-system, BlinkMacSystemFont, 'Segoe UI', Helvetica, Arial, sans-serif">
    <g transform="translate(16 16)">
      <rect width="84" height="31" rx="6" fill="#0D1117" stroke="#30363D"/>
      <rect x="9" y="7" width="18" height="18" rx="4" fill="#30363D"/>
      <rect x="12" y="10" width="12" height="12" rx="2" fill="#F87171"/>
      <path d="M15 14.5L20 12V19L15 16.5V14.5Z" fill="#FFFFFF"/>
      <text x="34" y="20" fill="#F0F6FC" font-size="13">@dlang</text>
    </g>
    <g transform="translate(107 16)">
      <rect width="111" height="31" rx="6" fill="#0D1117" stroke="#30363D"/>
      <rect x="9" y="7" width="18" height="18" rx="4" fill="#30363D"/>
      <text x="12" y="20" fill="#F0F6FC" font-size="7" font-weight="700">hu</text>
      <text x="22" y="20" fill="#F0F6FC" font-size="7" font-weight="700">sh</text>
      <text x="34" y="20" fill="#F0F6FC" font-size="13">@hushh-labs</text>
    </g>
    <g transform="translate(226 16)">
      <rect width="127" height="31" rx="6" fill="#0D1117" stroke="#30363D"/>
      <defs>
        <linearGradient id="avatarBlue" x1="9" y1="7" x2="27" y2="25" gradientUnits="userSpaceOnUse">
          <stop stop-color="#2563EB"/>
          <stop offset="1" stop-color="#111827"/>
        </linearGradient>
      </defs>
      <rect x="9" y="7" width="18" height="18" rx="4" fill="url(#avatarBlue)"/>
      <text x="34" y="20" fill="#F0F6FC" font-size="13">@Kathiravellulab</text>
    </g>
    <g transform="translate(363 16)">
      <rect width="65" height="31" rx="6" fill="#0D1117" stroke="#30363D"/>
      <text x="20" y="20" fill="#8B949E" font-size="13">More</text>
    </g>

    <text x="16" y="80" fill="#F0F6FC" font-size="14">Activity overview</text>
    <line x1="372.5" y1="63" x2="372.5" y2="326" stroke="#30363D"/>

    <g transform="translate(16 105)">
      <path d="M2 0.5H11C12.1 0.5 13 1.4 13 2.5V11.5H0V2.5C0 1.4 0.9 0.5 2 0.5Z" stroke="#8B949E"/>
      <path d="M3 14.5H10" stroke="#8B949E"/>
      <path d="M5 11.5V14.5M8 11.5V14.5" stroke="#8B949E"/>
      <text x="24" y="12" fill="#F0F6FC" font-size="14">Contributed to</text>
      <text x="24" y="34" fill="#58A6FF" font-size="14" font-weight="600">Roopalgm/Meta-openenv-clinical-...</text>
      <text x="24" y="56" fill="#58A6FF" font-size="14" font-weight="600">suyashkumar102/Aition,</text>
      <text x="24" y="78" fill="#58A6FF" font-size="14" font-weight="600">Roopalgm/openenv-it-helpdesk-ti...</text>
      <text x="24" y="100" fill="#F0F6FC" font-size="14">and 37 other repositories</text>
    </g>

    <g transform="translate(418 66)">
      <line x1="149" y1="38" x2="149" y2="219" stroke="#3FB950" stroke-width="2"/>
      <line x1="60" y1="126" x2="239" y2="129" stroke="#3FB950" stroke-width="2"/>
      <path d="M60 129L151 129L149 154Z" fill="#3FB950" fill-opacity="0.6" stroke="#3FB950" stroke-width="2"/>
      <path d="M60 129L151 129L149 154Z" fill="#3FB950" fill-opacity="0.18"/>
      <circle cx="60" cy="129" r="4" fill="#0D1117" stroke="#56D364" stroke-width="3"/>
      <circle cx="151" cy="129" r="4" fill="#0D1117" stroke="#56D364" stroke-width="3"/>
      <circle cx="149" cy="154" r="4" fill="#0D1117" stroke="#56D364" stroke-width="3"/>
      <circle cx="149" cy="129" r="2" fill="#F0F6FC"/>
      <text x="149" y="11" text-anchor="middle" fill="#8B949E" font-size="12">2%</text>
      <text x="149" y="29" text-anchor="middle" fill="#8B949E" font-size="12">Code review</text>
      <text x="260" y="126" fill="#8B949E" font-size="12">1%</text>
      <text x="260" y="144" fill="#8B949E" font-size="12">Issues</text>
      <text x="35" y="126" text-anchor="end" fill="#8B949E" font-size="12">78%</text>
      <text x="35" y="144" text-anchor="end" fill="#8B949E" font-size="12">Commits</text>
      <text x="149" y="241" text-anchor="middle" fill="#8B949E" font-size="12">19%</text>
      <text x="149" y="259" text-anchor="middle" fill="#8B949E" font-size="12">Pull requests</text>
    </g>
  </g>
</svg>
